<svg xmlns="http://www.w3.org/2000/svg" xmlns:xlink="http://www.w3.org/1999/xlink" style="display:none">
<!--
  BARE KYLLING – FIGURER
  Én sprite med alle tegnede figurer. Brukes slik:
    <svg class="figure" aria-hidden="true" focusable="false">  (størrelse via figure-klasser i CSS)
      <use href="images/figurer.svg#kylling-loper"></use>
    </svg>
  Alle symboler arver farge fra CSS (currentColor). Strek-stilen er den samme
  som logoen: runde ender, ingen fyll utenom øyeprikken.

  Grupper:
    kylling-*   maskot, viewBox 0 0 120 120, strek 5
    doodle-*    krydder/ingredienser, viewBox 0 0 64 64, strek 4
    ikon-*      linjeikoner, viewBox 0 0 32 32, strek 2.25
-->

<!-- ================= MASKOT ================= -->

<!-- Løper mot høyre: beina i steg, fartsstreker bak halen -->
<symbol id="kylling-loper" viewBox="0 0 120 120" fill="none" stroke="currentColor" stroke-width="5" stroke-linecap="round" stroke-linejoin="round">
  <g transform="translate(14 8)">
    <path d="M63.5 4c2.5-4 7.5-3 9 1.5 2.5-4 8-3 8.5 1.5 4-1.5 8 1.5 6.5 6 3 2.5 4.5 6 4.5 9.5l7.5 3.5-9 4.5"/>
    <path d="M90 30.5c-1 4.5-1.5 8-1.5 12.5v15.5C88.5 73.5 77 85 62.5 85h-16C32 85 20.5 73.5 20.5 59c0-1 0-2 .2-3"/>
    <path d="M21.5 61.5L2 56.5l19-12L1.5 29l25 4.5c12.5 2 24-.5 32-6.5 3.5-2.5 5.5-6.5 5.5-11"/>
    <!-- bakre bein sparker bakover, fremre bein strekker fram -->
    <path d="M42 84.5l-9 11-9-1M63 84.5l7 9 10 1"/>
    <circle cx="75.5" cy="18.5" r="2.7" fill="currentColor" stroke="none"/>
  </g>
  <!-- fartsstreker -->
  <path d="M3 58h8M1 70h10M5 82h6"/>
</symbol>

<!-- Titter opp over en kant: hode og vingetupper -->
<symbol id="kylling-titter" viewBox="0 0 120 120" fill="none" stroke="currentColor" stroke-width="5" stroke-linecap="round" stroke-linejoin="round">
  <!-- kanten -->
  <path d="M2 78h116"/>
  <g transform="translate(-4 36)">
    <path d="M63.5 4c2.5-4 7.5-3 9 1.5 2.5-4 8-3 8.5 1.5 4-1.5 8 1.5 6.5 6 3 2.5 4.5 6 4.5 9.5l7.5 3.5-9 4.5"/>
    <!-- bryst ned til kanten -->
    <path d="M90 30.5c-1 4-1.4 7.5-1.5 11.5"/>
    <!-- rygg/nakke ned til kanten -->
    <path d="M63.5 4c-5 9-8 20-8 38"/>
    <circle cx="75.5" cy="18.5" r="2.7" fill="currentColor" stroke="none"/>
  </g>
  <!-- vingetupper som holder i kanten -->
  <path d="M60 78c0-7 9-7 9 0M76 78c0-7 9-7 9 0"/>
</symbol>

<!-- Stikker hodet opp av en sekk -->
<symbol id="kylling-i-sekk" viewBox="0 0 120 120" fill="none" stroke="currentColor" stroke-width="5" stroke-linecap="round" stroke-linejoin="round">
  <!-- sekk -->
  <path d="M30 60h60v46a8 8 0 0 1-8 8H38a8 8 0 0 1-8-8z"/>
  <path d="M26 66h68M42 60v-8M78 60v-8"/>
  <path d="M46 88h28v20H46z"/>
  <g transform="translate(-16 16)">
    <path d="M63.5 4c2.5-4 7.5-3 9 1.5 2.5-4 8-3 8.5 1.5 4-1.5 8 1.5 6.5 6 3 2.5 4.5 6 4.5 9.5l7.5 3.5-9 4.5"/>
    <path d="M90 30.5c-1 4.5-1.5 8-1.5 12.5"/>
    <path d="M63.5 4c-4 10-6 22-5 39"/>
    <circle cx="75.5" cy="18.5" r="2.7" fill="currentColor" stroke="none"/>
  </g>
</symbol>

<!-- Snakker: åpent nebb -->
<symbol id="kylling-snakker" viewBox="0 0 120 120" fill="none" stroke="currentColor" stroke-width="5" stroke-linecap="round" stroke-linejoin="round">
  <g transform="translate(10 10)">
    <path d="M63.5 4c2.5-4 7.5-3 9 1.5 2.5-4 8-3 8.5 1.5 4-1.5 8 1.5 6.5 6 3 2.5 4.5 6 4.5 9.5"/>
    <!-- øvre og nedre nebb -->
    <path d="M92 22.5l9-1.5M92 22.5l6 7.5-8 1.5"/>
    <path d="M90 31.5c-1 4-1.5 7.5-1.5 11.5v15.5C88.5 73.5 77 85 62.5 85h-16C32 85 20.5 73.5 20.5 59c0-1 0-2 .2-3"/>
    <path d="M21.5 61.5L2 56.5l19-12L1.5 29l25 4.5c12.5 2 24-.5 32-6.5 3.5-2.5 5.5-6.5 5.5-11"/>
    <path d="M39.5 84.5V97h-8.5M60.5 84.5V97h8.5"/>
    <circle cx="75.5" cy="18.5" r="2.7" fill="currentColor" stroke="none"/>
  </g>
</symbol>

<!-- Flekser: én vinge løftet med knyttet «neve» -->
<symbol id="kylling-flekser" viewBox="0 0 120 120" fill="none" stroke="currentColor" stroke-width="5" stroke-linecap="round" stroke-linejoin="round">
  <g transform="translate(10 12)">
    <path d="M63.5 4c2.5-4 7.5-3 9 1.5 2.5-4 8-3 8.5 1.5 4-1.5 8 1.5 6.5 6 3 2.5 4.5 6 4.5 9.5l7.5 3.5-9 4.5"/>
    <path d="M90 30.5c-1 4.5-1.5 8-1.5 12.5v15.5C88.5 73.5 77 85 62.5 85h-16C32 85 20.5 73.5 20.5 59c0-1 0-2 .2-3"/>
    <path d="M21.5 61.5L2 56.5l19-12L1.5 29l25 4.5c12.5 2 24-.5 32-6.5 3.5-2.5 5.5-6.5 5.5-11"/>
    <path d="M39.5 84.5V97h-8.5M60.5 84.5V97h8.5"/>
    <circle cx="75.5" cy="18.5" r="2.7" fill="currentColor" stroke="none"/>
    <!-- vinge: overarm opp, underarm inn, neve -->
    <path d="M36 40C28 32 18 24 20 13M20 13c4-6 10-8 15-4"/>
    <circle cx="37" cy="10" r="4.5"/>
    <!-- kraftstreker -->
    <path d="M12 6L9 2M6 16l-5-1"/>
  </g>
</symbol>

<!-- Sover: ligger på bakken, lukket øye, z-er -->
<symbol id="kylling-sover" viewBox="0 0 120 120" fill="none" stroke="currentColor" stroke-width="5" stroke-linecap="round" stroke-linejoin="round">
  <g transform="translate(6 24)">
    <path d="M63.5 4c2.5-4 7.5-3 9 1.5 2.5-4 8-3 8.5 1.5 4-1.5 8 1.5 6.5 6 3 2.5 4.5 6 4.5 9.5l7.5 3.5-9 4.5"/>
    <path d="M90 30.5c-1 4.5-1.5 8-1.5 12.5v15.5C88.5 73.5 77 85 62.5 85h-16C32 85 20.5 73.5 20.5 59c0-1 0-2 .2-3"/>
    <path d="M21.5 61.5L2 56.5l19-12L1.5 29l25 4.5c12.5 2 24-.5 32-6.5 3.5-2.5 5.5-6.5 5.5-11"/>
    <!-- lukket øye -->
    <path d="M72 18c1.5 2.5 5.5 2.5 7 0"/>
  </g>
  <!-- bakken -->
  <path d="M14 111h92"/>
  <!-- z z z -->
  <path d="M96 30h7l-7 8h7M104 12h10l-10 12h10" stroke-width="4"/>
</symbol>

<!-- ================= DOODLES ================= -->

<symbol id="doodle-pepper" viewBox="0 0 64 64" fill="none" stroke="currentColor" stroke-width="4" stroke-linecap="round" stroke-linejoin="round">
  <circle cx="20" cy="42" r="8"/>
  <circle cx="42" cy="46" r="8"/>
  <circle cx="34" cy="22" r="8"/>
  <path d="M34 14v4M14 38l3 2M46 42l-3 3"/>
</symbol>

<symbol id="doodle-paprika" viewBox="0 0 64 64" fill="none" stroke="currentColor" stroke-width="4" stroke-linecap="round" stroke-linejoin="round">
  <path d="M8 34h48c0 14-10 22-24 22S8 48 8 34z"/>
  <path d="M14 34c4-8 10-12 18-12s14 4 18 12"/>
  <path d="M22 14v2M32 8v2M42 14v2" stroke-width="5"/>
</symbol>

<!-- Saltbøsse: lokk med hull, kropp som smalner oppover, noen korn -->
<symbol id="doodle-salt" viewBox="0 0 64 64" fill="none" stroke="currentColor" stroke-width="4" stroke-linecap="round" stroke-linejoin="round">
  <path d="M22 20h20l4 34a3 3 0 0 1-3 3H21a3 3 0 0 1-3-3z"/>
  <path d="M22 20c0-7 4-12 10-12s10 5 10 12"/>
  <path d="M28 13v1M36 13v1M32 11v1" stroke-width="5"/>
  <path d="M8 44v1M12 52v1M54 40v1" stroke-width="5"/>
</symbol>

<!-- Paprikafrukt (søt paprika): tre buer i bunnen og en stilk -->
<symbol id="doodle-paprikafrukt" viewBox="0 0 64 64" fill="none" stroke="currentColor" stroke-width="4" stroke-linecap="round" stroke-linejoin="round">
  <path d="M32 20c-4-3-9-3-13-1-7 3-10 11-9 20 1 10 6 17 13 17 3 0 5-2 9-2s6 2 9 2c7 0 12-7 13-17 1-9-2-17-9-20-4-2-9-2-13 1z"/>
  <path d="M32 20v8M24 30c-2 6-2 14 0 20M40 30c2 6 2 14 0 20"/>
  <path d="M32 20c0-6 3-10 8-12"/>
</symbol>

<symbol id="doodle-urt" viewBox="0 0 64 64" fill="none" stroke="currentColor" stroke-width="4" stroke-linecap="round" stroke-linejoin="round">
  <path d="M32 58c-2-16-2-32 2-50"/>
  <path d="M31 44c-10-2-15-8-16-15 9 0 14 6 16 15zM33 44c10-2 15-8 16-15-9 0-14 6-16 15z"/>
  <path d="M31 28c-8-2-11-6-12-12 7 0 10 5 12 12zM33 28c8-2 11-6 12-12-7 0-10 5-12 12z"/>
</symbol>

<!-- ================= IKONER ================= -->

<symbol id="ikon-riv-opp" viewBox="0 0 32 32" fill="none" stroke="currentColor" stroke-width="2.25" stroke-linecap="round" stroke-linejoin="round">
  <path d="M7 11l2.5-2.5L12 11l2.5-2.5L17 11l2.5-2.5L22 11l3-3v18a2 2 0 0 1-2 2H9a2 2 0 0 1-2-2z"/>
  <path d="M24 4l4-2"/>
</symbol>

<symbol id="ikon-kald-varm" viewBox="0 0 32 32" fill="none" stroke="currentColor" stroke-width="2.25" stroke-linecap="round" stroke-linejoin="round">
  <path d="M16 4v24"/>
  <path d="M12 16H4M7 12l-3 4 3 4M12 10l-3-2M12 22l-3 2"/>
  <path d="M22 26c-3-2-3-6-1-9 1 3 3 3 3 6 3-1 4-4 3-7 4 3 4 9 0 11a5 5 0 0 1-5-1z"/>
</symbol>

<symbol id="ikon-hake" viewBox="0 0 32 32" fill="none" stroke="currentColor" stroke-width="2.25" stroke-linecap="round" stroke-linejoin="round">
  <circle cx="16" cy="16" r="12"/>
  <path d="M10 16.5l4 4 8-9"/>
</symbol>

<symbol id="ikon-sekk" viewBox="0 0 32 32" fill="none" stroke="currentColor" stroke-width="2.25" stroke-linecap="round" stroke-linejoin="round">
  <path d="M9 12h14v14a3 3 0 0 1-3 3H12a3 3 0 0 1-3-3z"/>
  <path d="M12 12V9a4 4 0 0 1 8 0v3M9 18h14M13 23h6"/>
</symbol>

<symbol id="ikon-kylling" viewBox="-10 -10 120 120" fill="none" stroke="currentColor" stroke-width="7" stroke-linecap="round" stroke-linejoin="round">
  <path d="M63.5 4c2.5-4 7.5-3 9 1.5 2.5-4 8-3 8.5 1.5 4-1.5 8 1.5 6.5 6 3 2.5 4.5 6 4.5 9.5l7.5 3.5-9 4.5"/>
  <path d="M90 30.5c-1 4.5-1.5 8-1.5 12.5v15.5C88.5 73.5 77 85 62.5 85h-16C32 85 20.5 73.5 20.5 59c0-1 0-2 .2-3"/>
  <path d="M21.5 61.5L2 56.5l19-12L1.5 29l25 4.5c12.5 2 24-.5 32-6.5 3.5-2.5 5.5-6.5 5.5-11"/>
  <path d="M39.5 84.5V97h-8.5M60.5 84.5V97h8.5"/>
  <circle cx="75.5" cy="18.5" r="3.5" fill="currentColor" stroke="none"/>
</symbol>

<symbol id="ikon-epost" viewBox="0 0 32 32" fill="none" stroke="currentColor" stroke-width="2.25" stroke-linecap="round" stroke-linejoin="round">
  <rect x="4" y="8" width="24" height="17" rx="2"/>
  <path d="M4 10l12 9 12-9"/>
</symbol>

<symbol id="ikon-bjelle" viewBox="0 0 32 32" fill="none" stroke="currentColor" stroke-width="2.25" stroke-linecap="round" stroke-linejoin="round">
  <path d="M16 4v2M8 21v-7a8 8 0 0 1 16 0v7l3 4H5z"/>
  <path d="M13 27a3 3 0 0 0 6 0"/>
</symbol>

<symbol id="ikon-panne" viewBox="0 0 32 32" fill="none" stroke="currentColor" stroke-width="2.25" stroke-linecap="round" stroke-linejoin="round">
  <circle cx="13" cy="18" r="9"/>
  <path d="M21.5 14.5L30 7"/>
  <path d="M10 6c0-2 2-2 2-4M15 5c0-1.5 1.5-1.5 1.5-3"/>
</symbol>

<symbol id="ikon-oye" viewBox="0 0 32 32" fill="none" stroke="currentColor" stroke-width="2.25" stroke-linecap="round" stroke-linejoin="round">
  <path d="M3 16c3-6 8-9 13-9s10 3 13 9c-3 6-8 9-13 9S6 22 3 16z"/>
  <circle cx="16" cy="16" r="4.5"/>
</symbol>

<symbol id="ikon-sted" viewBox="0 0 32 32" fill="none" stroke="currentColor" stroke-width="2.25" stroke-linecap="round" stroke-linejoin="round">
  <path d="M16 29s-9-8.5-9-15a9 9 0 0 1 18 0c0 6.5-9 15-9 15z"/>
  <circle cx="16" cy="14" r="3.5"/>
</symbol>

<!-- Nam: fornøyd fjes med lukkede øyne og tunga ute -->
<symbol id="ikon-nam" viewBox="0 0 32 32" fill="none" stroke="currentColor" stroke-width="2.25" stroke-linecap="round" stroke-linejoin="round">
  <circle cx="16" cy="16" r="13"/>
  <path d="M9.5 13.5c1.2-1.8 3.3-1.8 4.5 0M18 13.5c1.2-1.8 3.3-1.8 4.5 0"/>
  <path d="M9.5 18.5c2.6 4 10.4 4 13 0"/>
  <path d="M18 21v1.8a1.9 1.9 0 0 0 3.8 0v-2.6"/>
</symbol>

</svg>
